<svg width="160" height="44" viewBox="0 0 160 44" fill="none" xmlns="http://www.w3.org/2000/svg">
<g clip-path="url(#clip0_799_67501)">
<path d="M11.6166 43.607L2.65171 34.0544L12.7719 23.6673H17.1848L6.04167 34.9984L6.20389 32.9557L16.3009 43.607H11.6166ZM0 43.607V12.1043H3.63493V43.607H0Z" fill="#AF1057"/>
<path d="M25.3684 43.9999C23.6171 43.9999 22.0281 43.5811 20.6012 42.7434C19.1744 41.88 18.0422 40.7137 17.208 39.2446C16.4002 37.7754 15.9963 36.1259 15.9963 34.2927C15.9963 32.4595 16.4002 30.8067 17.208 29.3408C18.0422 27.8749 19.1612 26.7086 20.5615 25.8419C21.9884 24.9785 23.5906 24.5435 25.3684 24.5435C26.8217 24.5435 28.1161 24.8464 29.245 25.4489C30.4037 26.0256 31.3306 26.8375 32.0324 27.8845C32.7342 28.9058 33.1216 30.0979 33.2043 31.4607V37.0827C33.1249 38.4198 32.7342 39.6118 32.0324 40.6589C31.3604 41.706 30.4434 42.534 29.2847 43.1365C28.1525 43.7132 26.8482 43.9999 25.3684 43.9999ZM25.9742 40.6589C27.7784 40.6589 29.2317 40.0693 30.3374 38.8902C31.4398 37.6852 31.9927 36.1516 31.9927 34.2927C31.9927 33.0072 31.7378 31.8957 31.2247 30.9517C30.7413 29.9819 30.0395 29.2345 29.1258 28.7125C28.2088 28.1616 27.1461 27.8878 25.9345 27.8878C24.7228 27.8878 23.6469 28.1616 22.7034 28.7125C21.7864 29.2635 21.0614 30.0238 20.5218 30.9936C20.0087 31.9375 19.7538 33.0233 19.7538 34.2572C19.7538 35.4912 20.0087 36.6285 20.5218 37.5982C21.0614 38.5422 21.7997 39.2897 22.7431 39.8374C23.6866 40.3883 24.7626 40.6622 25.9742 40.6622V40.6589ZM31.751 43.6069V38.5744L32.4363 34.0156L31.751 29.4954V24.2922H35.4257V43.6069H31.751Z" fill="#AF1057"/>
<path d="M45.6552 43.607L38.0609 24.9368H41.858L47.3501 39.4799H46.1385L51.5909 24.9368H53.6897L59.1421 39.4799H57.9305L63.4226 24.9368H67.2198L59.6685 43.607H57.5266L51.9948 29.4956H53.3289L47.754 43.607H45.6552Z" fill="#AF1057"/>
<path d="M76.9825 44.0002C75.0723 44.0002 73.3475 43.5813 71.8115 42.7437C70.2754 41.8802 69.0638 40.7139 68.1765 39.2448C67.2893 37.7757 66.8424 36.1132 66.8424 34.2542C66.8424 32.3953 67.2728 30.7683 68.1335 29.3023C69.0207 27.8364 70.2059 26.683 71.689 25.8421C73.1953 24.9787 74.8803 24.5438 76.7375 24.5438C78.5947 24.5438 80.0745 24.9368 81.4219 25.7229C82.7957 26.5091 83.8584 27.598 84.6132 28.9866C85.3945 30.3752 85.7851 31.9474 85.7851 33.7033C85.7851 33.9643 85.7719 34.2542 85.7454 34.5668C85.7189 34.8535 85.6659 35.195 85.5832 35.5881H70.0503V32.6401H83.6432L82.3091 33.7806C82.3091 32.5241 82.0807 31.4609 81.6238 30.5975C81.167 29.7051 80.5214 29.0253 79.6839 28.5549C78.8496 28.0555 77.8399 27.8074 76.6547 27.8074C75.4696 27.8074 74.3241 28.0684 73.384 28.5936C72.4405 29.1187 71.7155 29.8501 71.2023 30.794C70.6925 31.738 70.4343 32.8495 70.4343 34.135C70.4343 35.4205 70.7025 36.5965 71.2421 37.5952C71.7817 38.565 72.5497 39.3253 73.5429 39.8763C74.5393 40.4014 75.6848 40.6624 76.9759 40.6624C78.0518 40.6624 79.035 40.4787 79.9255 40.1115C80.8392 39.7442 81.6205 39.1932 82.2694 38.4619L84.6132 40.7816C83.6962 41.8287 82.5673 42.6277 81.2199 43.1786C79.899 43.7295 78.4888 44.0034 76.9792 44.0034L76.9825 44.0002Z" fill="#AF1057"/>
<path d="M87.9502 24.9368V43.6071H91.5851V24.9368H87.9502ZM104.188 28.397C103.539 27.2436 102.652 26.3125 101.52 25.6037C100.418 24.8982 99.1397 24.5438 97.6831 24.5438C96.2265 24.5438 94.9254 24.8724 93.7667 25.5264C92.8928 26 92.1645 26.6089 91.5851 27.3532C91.3931 27.5948 91.221 27.8493 91.0621 28.1199C90.4132 29.2218 90.0921 30.4783 90.0921 31.8927L91.5851 32.7207C91.5851 31.7767 91.8003 30.939 92.2307 30.2044C92.661 29.4699 93.2536 28.8932 94.0084 28.4743C94.7632 28.0555 95.6239 27.8461 96.5939 27.8461C98.0472 27.8461 99.2324 28.3036 100.149 29.2218C101.063 30.1368 101.52 31.3031 101.52 32.7207V38.6906C101.801 38.3491 102.136 38.0463 102.52 37.7918C102.632 37.7177 102.745 37.6468 102.864 37.5888C103.261 37.3665 103.622 37.2376 103.897 37.1377L104.062 37.0765C104.503 36.9122 104.9 36.7286 105.155 36.5675V32.0119C105.155 30.7264 104.834 29.5214 104.188 28.397Z" fill="#AF1057"/>
<path d="M127.027 34.7695C126.825 34.4344 126.541 34.2669 126.167 34.2669C125.736 34.2669 125.349 34.4634 125.005 34.8532C123.627 36.4448 122.495 37.5756 121.605 38.2458C120.714 38.8901 119.681 39.2091 118.506 39.2091C117.761 39.2091 117.159 38.9739 116.699 38.4971C116.238 37.9945 115.911 37.1729 115.709 36.026C118.95 31.7281 121.519 27.3851 123.412 23.0003C125.306 18.6186 126.253 14.7654 126.253 11.4405C126.253 9.124 125.852 7.35201 125.048 6.12129C124.826 5.76367 124.581 5.45438 124.309 5.20308L123.81 5.51559C123.462 5.73467 123.058 5.84744 122.644 5.84744C121.906 5.84744 121.224 5.4866 120.827 4.8809L120.509 4.39441C118.615 4.86479 116.944 6.37581 115.494 8.92747C113.742 12.0558 112.408 15.7963 111.491 20.1522C110.601 24.508 110.157 28.3903 110.157 31.7957C110.157 33.194 110.253 34.4924 110.442 35.6877C110.227 35.8971 110.011 36.1033 109.803 36.303C108.859 37.1955 107.879 38.0396 106.87 38.7451C106.367 39.0931 105.698 39.4024 105.079 39.6344C104.768 39.7503 104.476 39.8341 104.208 39.9952C104.182 40.0049 104.155 40.021 104.129 40.0403C103.629 40.3625 103.298 40.9166 103.298 41.5449C103.298 42.1731 103.629 42.7273 104.129 43.0495C104.42 43.2395 104.774 43.3523 105.155 43.3523C105.284 43.3523 105.41 43.3394 105.529 43.3169C105.575 43.3072 105.622 43.2943 105.665 43.2814C105.701 43.2718 105.738 43.2589 105.774 43.2492C106.188 43.1236 106.559 42.9689 106.913 42.8078C108.654 41.9669 110.137 40.7781 111.514 39.5313C111.653 39.8534 111.802 40.166 111.965 40.4656C113.199 42.7015 115.076 43.8162 117.602 43.8162C119.44 43.8162 121.075 43.3426 122.509 42.3922C123.972 41.445 125.319 40.2304 126.554 38.7484C127.1 38.1362 127.372 37.2696 127.372 36.1516C127.372 35.5652 127.256 35.1045 127.027 34.7695ZM115.407 30.3717C115.47 27.2401 115.811 23.8959 116.44 20.4873C117.073 17.0528 117.804 14.179 118.635 11.8593C119.466 9.54283 120.214 8.38299 120.873 8.38299C121.678 8.38299 122.078 9.44618 122.078 11.5661C122.078 14.2756 121.476 17.2783 120.271 20.571C119.072 23.8218 117.43 27.1209 115.407 30.3717C115.417 30.3556 115.398 30.3878 115.407 30.3717Z" fill="#222222"/>
<path d="M127.905 43.8165C126.127 43.8165 124.707 43.1882 123.644 41.9317C122.581 40.6752 122.052 39.0289 122.052 36.9895C122.052 34.7568 122.581 32.6465 123.644 30.6651C124.707 28.6547 126.11 27.0503 127.862 25.8485C129.639 24.621 131.52 24.0057 133.499 24.0057C134.132 24.0057 134.545 24.1313 134.747 24.3826C134.976 24.6049 135.165 25.0238 135.307 25.6391C135.909 25.5264 136.542 25.4716 137.201 25.4716C138.607 25.4716 139.309 25.9613 139.309 26.9375C139.309 27.5239 139.094 28.9189 138.664 31.1258C138.005 34.338 137.674 36.5707 137.674 37.8272C137.674 38.246 137.773 38.5811 137.975 38.8324C138.204 39.0837 138.492 39.2093 138.836 39.2093C139.382 39.2093 140.041 38.8742 140.816 38.2041C141.59 37.505 142.636 36.3902 143.957 34.8534C144.302 34.4636 144.689 34.2671 145.119 34.2671C145.493 34.2671 145.778 34.4346 145.98 34.7697C146.208 35.1047 146.324 35.5655 146.324 36.1518C146.324 37.2698 146.053 38.1332 145.507 38.7486C144.331 40.1726 143.083 41.3744 141.762 42.3506C140.441 43.3268 139.167 43.8165 137.932 43.8165C136.985 43.8165 136.111 43.5104 135.307 42.895C134.532 42.2539 133.943 41.3872 133.542 40.2983C132.049 42.6437 130.172 43.8165 127.905 43.8165ZM129.454 39.5863C130.086 39.5863 130.689 39.2222 131.261 38.4973C131.834 37.7724 132.251 36.8091 132.51 35.6073L134.102 27.9008C132.897 27.9298 131.778 28.3744 130.745 29.2411C129.742 30.0788 128.937 31.1967 128.335 32.5918C127.732 33.9868 127.431 35.4688 127.431 37.0314C127.431 37.898 127.603 38.5392 127.948 38.958C128.322 39.3768 128.822 39.5863 129.454 39.5863Z" fill="#222222"/>
<path d="M159.268 24.8014C158.808 24.3278 158.12 24.0894 157.203 24.0894C156.286 24.0894 155.206 24.4115 154.061 25.0527C152.942 25.697 151.793 26.7699 150.618 28.2777C149.469 29.7597 148.423 31.6863 147.476 34.0576C147.476 32.524 147.519 31.0291 147.605 29.5761C151.419 25.5295 154.174 21.9952 155.868 18.9796C157.56 15.9382 158.408 13.0064 158.408 10.1841C158.408 8.42502 157.991 7.00099 157.16 5.91203C156.355 4.79729 155.292 4.23669 153.975 4.23669C151.505 4.23669 149.383 5.82826 147.605 9.01139C145.854 12.1687 144.52 16.0768 143.603 20.7387C143.077 23.503 142.706 26.2029 142.491 28.8383C141.62 29.0058 140.965 29.7501 140.965 30.6489C140.965 31.4769 141.524 32.1761 142.295 32.408C142.279 33.0041 142.269 33.5936 142.269 34.1832C142.269 36.7252 142.338 38.6519 142.484 39.9631C142.626 41.2776 142.898 42.2538 143.302 42.895C143.732 43.5103 144.391 43.8164 145.282 43.8164C146.172 43.8164 146.814 43.5941 147.218 43.1463C147.649 42.6727 148.019 41.7802 148.337 40.4657C148.767 38.7646 149.327 37.1441 150.016 35.6073C150.704 34.0737 151.393 32.843 152.081 31.9215C152.77 30.9743 153.3 30.4975 153.674 30.4975C153.988 30.4975 154.147 30.723 154.147 31.1676C154.147 31.783 153.975 33.207 153.631 35.4397C153.227 38.0107 153.028 39.8536 153.028 40.9683C153.028 41.9188 153.243 42.6308 153.674 43.1044C154.104 43.5812 154.793 43.8164 155.739 43.8164C156.742 43.8164 157.461 43.5941 157.891 43.1463C158.348 42.6727 158.58 41.9059 158.58 40.8427C158.58 38.974 158.666 37.2826 158.838 35.7748C159.01 34.2412 159.239 32.6207 159.527 30.9163C159.841 28.9059 160 27.5399 160 26.8118C160 25.9193 159.755 25.2492 159.268 24.8014ZM149.499 16.3828C150.102 13.9278 150.717 11.9851 151.35 10.5611C151.979 9.11126 152.555 8.38314 153.071 8.38314C153.442 8.38314 153.73 8.62155 153.932 9.09515C154.13 9.57198 154.233 10.255 154.233 11.1474C154.233 13.1031 153.644 15.281 152.469 17.6812C151.32 20.0847 149.857 22.3045 148.079 24.3407C148.45 21.4668 148.923 18.8121 149.499 16.3828Z" fill="#222222"/>
<path d="M125.097 2.79974L124.617 3.09936L122.916 4.15933C122.833 4.21088 122.737 4.23665 122.644 4.23665C122.479 4.23665 122.316 4.15611 122.22 4.01113L121.131 2.35513L120.823 1.88797C120.449 1.31771 120.618 0.55737 121.207 0.193307C121.416 0.061214 121.651 0 121.886 0C122.3 0 122.707 0.199751 122.949 0.563813L123.257 1.03097L123.737 0.731346C123.945 0.602475 124.184 0.538039 124.415 0.538039C124.832 0.538039 125.236 0.73779 125.478 1.10507C125.855 1.67533 125.683 2.43567 125.097 2.79974Z" fill="#AF1057"/>
</g>
<defs>
<clipPath id="clip0_799_67501">
<rect width="160" height="44" fill="white"/>
</clipPath>
</defs>
</svg> 