<?xml version="1.0" encoding="utf-8" ?>
<svg xmlns="http://www.w3.org/2000/svg" xmlns:xlink="http://www.w3.org/1999/xlink" width="1024" height="1024">
	<path fill="white" d="M581.609 295.704C586.082 294.799 591.878 295.416 596.468 295.432C609.134 295.476 621.792 295.883 634.452 295.916C682.152 296.042 729.931 295.249 777.618 296.025C765.632 317.859 752.584 339.162 740.866 361.121C723.962 361.796 706.837 361.182 689.903 361.25L577.785 361.368C552.722 361.493 529.909 365.81 508.607 379.775Q507.474 380.518 506.359 381.289Q505.245 382.06 504.15 382.859Q503.055 383.657 501.98 384.483Q500.905 385.308 499.851 386.16Q498.797 387.012 497.764 387.889Q496.732 388.767 495.721 389.67Q494.711 390.573 493.723 391.501Q492.735 392.429 491.771 393.381Q490.806 394.333 489.866 395.309Q488.925 396.285 488.009 397.284Q487.093 398.283 486.202 399.304Q485.311 400.325 484.446 401.368Q483.581 402.411 482.742 403.476Q481.903 404.54 481.09 405.625Q480.278 406.709 479.492 407.814Q478.707 408.918 477.949 410.042Q477.192 411.166 476.462 412.308Q475.733 413.45 475.032 414.61Q474.331 415.77 473.659 416.947Q472.987 418.124 472.345 419.317Q471.702 420.51 471.09 421.719Q470.477 422.928 469.895 424.152Q469.312 425.375 468.76 426.613Q468.208 427.851 467.687 429.102Q467.166 430.353 466.676 431.617Q466.187 432.88 465.728 434.156Q465.27 435.431 464.843 436.717Q464.417 438.004 464.023 439.3Q463.628 440.597 463.266 441.903Q462.904 443.209 462.574 444.524Q462.245 445.838 461.948 447.16Q461.651 448.483 461.387 449.812C461.374 439.863 460.834 429.939 461.224 419.984C462.402 389.939 471.428 361.605 491.531 338.759C515.256 311.796 546.051 298.082 581.609 295.704Z"/>
	<path fill="white" d="M577.248 461.213C592.051 460.527 607.066 461.032 621.889 461.03L699.795 461.05C693.975 469.853 689.167 479.561 683.788 488.665C676.102 501.675 667.703 514.466 660.633 527.81C654.316 528.1 647.87 527.713 641.538 527.64Q624.303 527.445 607.067 527.466C585.507 527.467 566.324 528.672 547.088 539.588C523.186 553.154 508.815 573.992 501.566 600.105C495.052 628.057 497.989 652.042 504.178 679.628C480.815 653.198 465.534 621.417 463.635 585.917C461.907 553.608 474.361 521.798 495.934 497.939C517.673 473.896 545.346 462.798 577.248 461.213Z"/>
	<path fill="white" d="M246.658 520.645C260.066 524.101 273.242 528.789 286.404 533.082Q313.584 542.088 341.085 550.061C340.507 583.137 342.017 606.8 359.212 636.551C378.426 669.795 409.695 691.111 446.401 700.894C460.212 704.575 474.394 705.98 488.658 706.101C528.676 706.443 564.44 695.29 598.865 675.348C595.139 679.364 590.364 682.942 586.2 686.539C552.365 714.678 510.292 727.921 466.659 728.385C407.149 729.018 351.942 706.154 309.578 664.425C271.433 626.853 247.12 574.496 246.658 520.645Z"/>
	<path fill="white" d="M571.148 376.705C576.972 375.945 583.4 376.45 589.292 376.486L622.733 376.644L735.522 376.695C729.18 385.538 723.997 395.903 718.537 405.322C711.003 418.32 702.998 431.197 696.056 444.514C682.335 445.664 668.077 445.026 654.309 444.876Q624.716 444.532 595.122 444.499C580.065 444.455 565.209 444.233 550.29 446.619C544.133 447.816 538.168 449.413 532.309 451.672C504.854 462.254 485.048 481.657 472.059 507.803C468.933 514.098 466.644 520.647 463.79 527.036L463.757 526.623C463.148 518.541 463.388 510.281 463.395 502.175C463.423 467.257 468.507 443 492.103 415.649C512.365 392.161 540.461 379.027 571.148 376.705Z"/>
	<path fill="white" d="M457.031 295.794C457.494 296.001 457.256 295.951 457.849 295.93C467.083 295.604 476.916 296.614 486.125 297.376L486.181 297.827C446.672 301.861 410.287 317.025 382.106 345.393C360.916 366.723 346.239 396.098 342.379 425.944C340.574 439.9 340.824 454.048 340.872 468.089L270.12 488.651C262.327 490.904 254.548 493.217 246.656 495.1C249.432 452.836 266.576 410.2 293.114 377.342Q294.594 375.518 296.113 373.726Q297.632 371.935 299.19 370.176Q300.747 368.417 302.341 366.692Q303.936 364.967 305.567 363.277Q307.198 361.587 308.864 359.931Q310.531 358.276 312.233 356.657Q313.935 355.038 315.671 353.456Q317.408 351.874 319.177 350.329Q320.947 348.785 322.75 347.279Q324.552 345.772 326.386 344.305Q328.221 342.838 330.086 341.41Q331.951 339.982 333.847 338.595Q335.742 337.207 337.667 335.861Q339.592 334.514 341.545 333.209Q343.498 331.904 345.479 330.642Q347.459 329.379 349.466 328.159Q351.474 326.939 353.507 325.762Q355.54 324.585 357.597 323.452Q359.655 322.319 361.737 321.231Q363.818 320.142 365.922 319.098Q368.027 318.054 370.153 317.056Q372.279 316.057 374.426 315.105Q376.574 314.152 378.741 313.246Q380.908 312.339 383.094 311.48Q385.28 310.62 387.483 309.807Q389.687 308.994 391.908 308.229Q394.129 307.464 396.366 306.746Q398.602 306.028 400.854 305.359Q403.106 304.689 405.371 304.068Q407.636 303.447 409.914 302.875Q412.193 302.302 414.483 301.779Q416.772 301.255 419.073 300.781C431.589 298.173 444.337 297.152 457.031 295.794Z"/>
	<path fill="white" d="M365.527 406.834C366.462 410.127 365.1 418.641 364.874 422.451C363.766 441.165 364.463 466.125 376.629 481.423C393.896 503.136 428.826 501.652 454.131 504.439C429.467 507.672 400.08 504.613 380.937 523.769C362.529 542.191 363.914 571.916 364.028 596.025C364.186 598.347 364.182 600.628 364.136 602.951C358.665 578.854 361.653 544.644 344.721 525.489C332.867 512.079 316.836 508.394 299.855 505.957C294.273 505.156 288.674 504.263 283.037 503.962L282.04 503.914L282.155 503.553L280.277 503.794L281.09 503.937L281.026 503.503C284.935 502.709 289.042 502.731 293.02 502.367C306.297 501.152 320.448 499.62 332.474 493.462C367.287 475.634 355.749 437.379 365.527 406.834Z"/>
</svg>
